# xmcd CD database file
#
# Track frame offsets:
#	150
#	2285
#	20344
#	39307
#	62788
#	70443
#	83719
#	99535
#	119516
#	154505
#	172901
#	195923
#	215228
#	235629
#	240250
#
# Disc length: 3746 seconds
#
# Revision: 0
# Processed by: cddbd v1.4PL0 Copyright (c) Steve Scherf et al.
# Submitted via: CDex 1.50
#
DISCID=b00ea00f
DTITLE=One Drop - Soul
DYEAR=2003
DGENRE=Rhythmic Soul
TTITLE0=The 3rd
TTITLE1=Soul
TTITLE2=Money
TTITLE3=War
TTITLE4=Tribality
TTITLE5=Run
TTITLE6=Siddartha
TTITLE7=Get Over
TTITLE8=Numbers
TTITLE9=Beautiful Woman
TTITLE10=Amaretto Sour
TTITLE11=Revelations
TTITLE12=Suspend Your Disbelief
TTITLE13=?why?
TTITLE14=Revival
EXTD=YEAR: 2003
EXTT0=
EXTT1=
EXTT2=
EXTT3=
EXTT4=
EXTT5=
EXTT6=
EXTT7=
EXTT8=
EXTT9=
EXTT10=
EXTT11=
EXTT12=
EXTT13=
EXTT14=
PLAYORDER=
